<?xml version="1.0" encoding="utf-8"?>
<!-- Generator: Adobe Illustrator 23.0.1, SVG Export Plug-In . SVG Version: 6.00 Build 0)  -->
<svg version="1.1" id="Layer_2" xmlns="http://www.w3.org/2000/svg" xmlns:xlink="http://www.w3.org/1999/xlink" x="0px" y="0px" width="20px"
	 viewBox="0 0 24 40" style="enable-background:new 0 0 24 40;" xml:space="preserve">
<style type="text/css">
	.st0{fill:#E0FF04;}
</style>
<path class="st0" d="M1.1,20.7l2.2,2.2c0,0,0,0,0,0l16,16c0.4,0.4,1,0.4,1.4,0l2.2-2.2c0.4-0.4,0.4-1,0-1.4L7.6,20L22.9,4.6
	c0.4-0.4,0.4-1,0-1.4L20.7,1c-0.4-0.4-1-0.4-1.4,0l-16,16c0,0,0,0,0,0l-2.2,2.2c-0.2,0.2-0.3,0.5-0.3,0.7
	C0.8,20.3,0.9,20.5,1.1,20.7z"/>
</svg>
