<?xml version="1.0" encoding="utf-8"?>
<!-- Generator: Adobe Illustrator 23.0.1, SVG Export Plug-In . SVG Version: 6.00 Build 0)  -->
<svg version="1.1" id="Layer_2" xmlns="http://www.w3.org/2000/svg" xmlns:xlink="http://www.w3.org/1999/xlink" x="0px" y="0px" width="20px"
	 viewBox="0 0 24 40" style="enable-background:new 0 0 24 40;" xml:space="preserve">
<style type="text/css">
	.st0{fill:#E0FF04;}
</style>
<path class="st0" d="M22.9,19.3l-2.2-2.2c0,0,0,0,0,0L4.7,1c-0.4-0.4-1-0.4-1.4,0L1.1,3.2c-0.4,0.4-0.4,1,0,1.4L16.4,20L1.1,35.4
	c-0.4,0.4-0.4,1,0,1.4L3.3,39c0.4,0.4,1,0.4,1.4,0l16-16c0,0,0,0,0,0l2.2-2.2c0.2-0.2,0.3-0.5,0.3-0.7
	C23.2,19.7,23.1,19.5,22.9,19.3z"/>
</svg>
